nColumns=19
nRows=63
DataType=double
version=3
OpenSimVersion=4.1
endheader
time	ground_force_1_vx	ground_force_1_vy	ground_force_1_vz	ground_force_1_px	ground_force_1_py	ground_force_1_pz	ground_force_1_mx	ground_force_1_my	ground_force_1_mz	ground_force_2_vx	ground_force_2_vy	ground_force_2_vz	ground_force_2_px	ground_force_2_py	ground_force_2_pz	ground_force_2_mx	ground_force_2_my	ground_force_2_mz
1.88	0.00690906	0.011965	-0.0618422	-0.000463401	0	-0.000165971	0	0	0	-4.58247	7.86064	5.40729	0.931758	0	-0.605096	-0	4.14928	-0
1.89	-0.00502499	-0.00355243	-0.11455	-0.000463401	0	-0.000165971	0	0	0	-19.2248	35.9189	13.9921	0.938124	0	-0.606385	-0	4.78843	-0
1.9	-0.0844161	-0.0645464	-0.298999	-0.000463401	0	-0.000165971	0	0	0	-53.5831	115.696	29.9482	0.944605	0	-0.605451	-0	4.92984	-0
1.91	-0.615216	-0.418569	-0.642932	-0.000463401	0	-0.000165971	0	0	0	-95.3158	261.85	52.0576	0.946108	0	-0.602824	-0	4.65801	-0
1.92	-2.23054	-1.18241	-0.945686	-0.000463401	0	-0.000165971	0	0	0	-107.965	444.878	73.3117	0.935151	0	-0.599346	-0	4.20371	-0
1.93	-2.87224	-0.258767	-0.691871	-0.000463401	0	-0.000165971	0	0	0	-86.9014	638.348	87.3594	0.908607	0	-0.59662	-0	3.8032	-0
1.94	0.893706	3.90971	0.176607	-0.000463401	0	-0.000165971	0	0	0	-74.4603	844.5	97.5298	0.881094	0	-0.594945	-0	3.58794	-0
1.95	1.51518	5.23405	0.467763	0.200482	0	0.032766	-0	0.462457	-0	-90.2728	1055.92	110.651	0.865944	0	-0.592733	-0	3.58799	-0
1.96	-4.10454	1.41633	-0.557991	-0.000463401	0	-0.000165971	0	0	0	-111.397	1253.13	123.355	0.854661	0	-0.589724	-0	3.77849	-0
1.97	-3.84094	0.702583	-1.29091	-0.000463401	0	-0.000165971	0	0	0	-112.508	1427.6	127.797	0.836549	0	-0.587488	-0	4.06228	-0
1.98	1.92522	5.24926	-0.307509	0.0410906	0	0.066924	-0	0.030482	-0	-99.4872	1577.88	127.159	0.815968	0	-0.586343	-0	4.23821	-0
1.99	0.78197	6.65679	0.703784	0.20863	0	0.074796	0	-0.105703	0	-90.4883	1691.98	130.994	0.800156	0	-0.585269	-0	4.07414	-0
2	-3.2379	3.73184	-0.132065	-0.000463401	0	-0.000165971	0	0	0	-81.7647	1758.24	140.724	0.786201	0	-0.584403	-0	3.45361	-0
2.01	-0.608178	3.11943	-1.35238	-0.000463401	0	-0.000165971	0	0	0	-62.4895	1780.5	151.408	0.769656	0	-0.584334	-0	2.45628	-0
2.02	0.842118	4.74574	-1.09728	-0.000463401	0	-0.000165971	0	0	0	-39.0197	1769.28	160.452	0.752724	0	-0.584509	-0	1.32254	-0
2.03	-2.68221	4.7358	-0.566757	-0.000463401	0	-0.000165971	0	0	0	-17.3921	1729.74	165.957	0.737341	0	-0.584271	-0	0.35294	-0
2.04	-2.3478	3.84806	-1.20064	-0.000463401	0	-0.000165971	0	0	0	8.24626	1663.66	164.225	0.72084	0	-0.583871	0	-0.209357	0
2.05	1.07634	4.11634	-1.72767	-0.000463401	0	-0.000165971	0	0	0	38.4806	1573.67	154.575	0.702457	0	-0.583466	0	-0.271484	0
2.06	0.433179	4.97039	-1.04203	-0.000463401	0	-0.000165971	0	0	0	66.7368	1463.01	140.262	0.684744	0	-0.582733	-0	0.091077	-0
2.07	-1.51882	5.268	-0.570418	0.16826	0	0.136999	0	-0.256436	0	91.465	1333	123.403	0.667451	0	-0.581686	-0	0.694035	-0
2.08	-0.0302217	5.05472	-1.20607	0.0885446	0	0.101112	0	-0.328555	0	112.706	1186.51	104.682	0.648661	0	-0.580627	-0	1.32873	-0
2.09	0.713886	5.35813	-1.45566	0.238841	0	0.04911	0	-0.439612	0	126.632	1031.61	86.0324	0.630333	0	-0.579614	-0	1.83107	-0
2.1	-1.80269	5.57556	-0.576288	0.58438	0	0.064323	0	-0.573597	0	130.921	875.133	68.8406	0.614708	0	-0.578575	-0	2.1226	-0
2.11	-2.99364	4.90728	0.0251937	-0.000463401	0	-0.000165971	0	0	0	127.362	719.864	52.5092	0.599188	0	-0.577697	-0	2.21154	-0
2.12	-1.76102	4.0863	-0.250127	-0.000463401	0	-0.000165971	0	0	0	117.313	571.684	37.2772	0.581978	0	-0.577175	-0	2.1574	-0
2.13	-2.08522	3.62323	-0.207274	-0.000463401	0	-0.000165971	0	0	0	101.376	439.788	24.7613	0.567407	0	-0.576985	-0	2.02967	-0
2.14	-3.93116	3.433	0.509501	-0.000463401	0	-0.000165971	0	0	0	82.4949	327.748	15.0392	0.556844	0	-0.577243	-0	1.87889	-0
2.15	-3.72523	2.83903	0.7674	-0.000463401	0	-0.000165971	0	0	0	64.0565	234.238	7.13934	0.543077	0	-0.578465	-0	1.71652	-0
2.16	-2.18436	1.98224	0.26705	-0.000463401	0	-0.000165971	0	0	0	47.3767	160.165	1.68877	0.527961	0	-0.580568	-0	1.51081	-0
2.17	-1.99042	1.34946	0.0449062	-0.000463401	0	-0.000165971	0	0	0	33.4918	106.332	-0.608182	0.528682	0	-0.582947	-0	1.20916	-0
2.18	-2.53059	2.10867	0.489036	-0.000463401	0	-0.000165971	0	0	0	23.604	68.2958	-1.27949	0.543477	0	-0.587215	-0	0.770018	-0
2.19	-1.7797	3.03721	0.832249	-0.000463401	0	-0.000165971	0	0	0	16.3739	40.2054	-1.79896	0.540134	0	-0.595563	-0	0.182631	-0
2.2	-0.811404	3.36154	0.539601	-0.000463401	0	-0.000165971	0	0	0	9.1327	20.9699	-1.54387	0.521935	0	-0.60628	0	-0.519661	0
2.21	-1.14714	3.14541	-0.258938	-0.000463401	0	-0.000165971	0	0	0	2.535	10.5097	-0.177044	0.566185	0	-0.611028	0	-1.24725	0
2.22	-2.09196	3.88175	-1.74139	-0.000463401	0	-0.000165971	0	0	0	-0.544257	5.39754	0.957895	0.583531	0	-0.613166	0	-1.86287	0
2.23	-4.82225	9.6092	-5.01917	1.01829	0	-0.266293	0	-2.46093	0	-0.298934	2.61183	1.19972	-0.000463401	0	-0.000165971	0	0	0
2.24	-16.6416	34.2721	-11.815	0.944979	0	-0.306025	0	-2.52636	0	0.00420101	1.67305	1.35715	-0.000463401	0	-0.000165971	0	0	0
2.25	-43.664	105.566	-23.3341	0.942155	0	-0.313235	0	-2.17805	0	-0.392637	1.85525	1.65418	-0.000463401	0	-0.000165971	0	0	0
2.26	-72.8671	239.839	-38.5015	0.939119	0	-0.317291	0	-1.53305	0	0.107458	1.95251	1.43694	-0.000463401	0	-0.000165971	0	0	0
2.27	-77.7325	414.276	-53.6158	0.924257	0	-0.322711	0	-0.813679	0	0.655967	1.64068	0.659489	-0.000463401	0	-0.000165971	0	0	0
2.28	-58.9485	603.884	-65.5496	0.901071	0	-0.328572	0	-0.235667	0	-0.383727	1.50188	-0.230458	-0.000463401	0	-0.000165971	0	0	0
2.29	-56.2081	803.474	-75.005	0.880019	0	-0.333455	-0	0.09441	-0	0.663942	2.75008	-1.10696	-0.000463401	0	-0.000165971	0	0	0
2.3	-88.457	999.011	-84.4695	0.866877	0	-0.337525	-0	0.211721	-0	2.71138	3.21305	-1.57989	-0.000463401	0	-0.000165971	0	0	0
2.31	-131.686	1176.59	-94.3191	0.856418	0	-0.340978	-0	0.258845	-0	1.09611	1.85921	-1.10408	-0.000463401	0	-0.000165971	0	0	0
2.32	-156.868	1336.32	-103.723	0.842855	0	-0.343167	-0	0.423968	-0	-0.0524218	1.87915	-0.434554	-0.000463401	0	-0.000165971	0	0	0
2.33	-155.287	1480.06	-113.475	0.826626	0	-0.343923	-0	0.872283	-0	1.88892	2.76257	-0.779251	-0.000463401	0	-0.000165971	0	0	0
2.34	-139.324	1600.51	-124.813	0.810686	0	-0.343908	-0	1.67846	-0	3.34215	2.86098	-1.57937	-0.000463401	0	-0.000165971	0	0	0
2.35	-119.817	1687.12	-137.054	0.795463	0	-0.343401	-0	2.78616	-0	2.24081	3.06108	-1.63772	-0.000463401	0	-0.000165971	0	0	0
2.36	-98.3865	1736.65	-148.379	0.779865	0	-0.34259	-0	4.02079	-0	1.56026	3.51282	-1.32019	-0.000463401	0	-0.000165971	0	0	0
2.37	-75.6434	1753.68	-156.955	0.763846	0	-0.341874	-0	5.15075	-0	2.29381	2.94098	-1.28462	-0.000463401	0	-0.000165971	0	0	0
2.38	-53.8779	1742.78	-161.075	0.748222	0	-0.341405	-0	5.96818	-0	2.44349	2.20041	-1.08941	-0.000463401	0	-0.000165971	0	0	0
2.39	-29.7826	1705.78	-160.313	0.732526	0	-0.341074	-0	6.35454	-0	1.58712	2.39337	-0.629311	-0.000463401	0	-0.000165971	0	0	0
2.4	0.743981	1643.01	-155.864	0.71565	0	-0.340944	-0	6.30201	-0	1.19813	2.3716	-0.610054	-0.000463401	0	-0.000165971	0	0	0
2.41	34.6023	1555.01	-148.604	0.697856	0	-0.341028	-0	5.88914	-0	1.11116	1.6278	-1.06128	-0.000463401	0	-0.000165971	0	0	0
2.42	65.5005	1443.59	-138.408	0.680052	0	-0.341198	-0	5.23855	-0	0.693506	1.05196	-1.32497	-0.000463401	0	-0.000165971	0	0	0
2.43	91.3914	1312.45	-125.573	0.662221	0	-0.341431	-0	4.47998	-0	0.38689	0.728754	-1.24634	-0.000463401	0	-0.000165971	0	0	0
2.44	111.979	1166.61	-111.085	0.643998	0	-0.341811	-0	3.72243	-0	0.580059	0.555784	-1.08302	-0.000463401	0	-0.000165971	0	0	0
2.45	125.131	1012.4	-95.6383	0.625717	0	-0.342338	-0	3.03646	-0	0.61145	0.307211	-0.880375	-0.000463401	0	-0.000165971	0	0	0
2.46	129.533	857.765	-79.6873	0.607702	0	-0.34286	-0	2.45157	-0	0.3128	0.0805123	-0.597904	-0.000463401	0	-0.000165971	0	0	0
2.47	127.427	710.166	-64.0651	0.589961	0	-0.343051	-0	1.96574	-0	0.0898516	0.00774727	-0.321729	-0.000463401	0	-0.000165971	0	0	0
2.48	119.539	573.876	-49.7788	0.573088	0	-0.342726	-0	1.55798	-0	0.0169002	-0.000667624	-0.138806	-0.000463401	0	-0.000165971	0	0	0
2.49	104.848	451.554	-37.3319	0.557405	0	-0.341948	-0	1.20002	-0	0.00233345	-0.000323484	-0.0496294	-0.000463401	0	-0.000165971	0	0	0
2.5	85.1706	345.938	-26.5741	0.542597	0	-0.340603	-0	0.869153	-0	0.000255563	-6.00208e-05	-0.0152042	-0.000463401	0	-0.000165971	0	0	0
